<?xml version="1.0" standalone="no"?>
<!DOCTYPE svg PUBLIC "-//W3C//DTD SVG 20010904//EN"
 "http://www.w3.org/TR/2001/REC-SVG-20010904/DTD/svg10.dtd">
<svg version="1.0" xmlns="http://www.w3.org/2000/svg"
 width="519.000000pt" height="424.000000pt" viewBox="0 0 519.000000 424.000000"
 preserveAspectRatio="xMidYMid meet">

<g transform="translate(0.000000,424.000000) scale(0.100000,-0.100000)"
fill="#000000" stroke="none">
<path d="M2411 4004 c-46 -41 -45 -90 3 -182 21 -38 48 -80 61 -92 24 -22 25
-23 67 -6 24 9 69 32 101 52 88 55 110 116 61 173 -21 26 -33 31 -67 31 -23 0
-48 -4 -56 -9 -9 -6 -22 0 -40 21 -16 17 -40 31 -62 34 -30 5 -42 1 -68 -22z"/>
<path d="M3333 4019 c-83 -8 -178 -56 -257 -129 -100 -94 -146 -203 -146 -345
0 -95 18 -170 90 -392 102 -310 180 -649 180 -779 0 -41 13 -48 107 -57 41 -4
85 -18 125 -38 51 -26 70 -30 109 -27 l48 5 11 -48 c7 -26 25 -68 41 -93 50
-80 104 -60 170 65 31 57 59 79 103 79 32 0 74 -35 91 -76 12 -29 19 -34 46
-34 17 0 58 14 91 32 95 51 132 109 109 173 -32 90 8 142 130 170 144 32 209
75 209 137 0 42 -15 65 -62 94 -39 25 -40 28 -35 66 7 50 42 94 136 173 106
88 137 149 94 187 -10 9 -96 55 -192 103 -234 118 -347 196 -521 360 -226 213
-315 281 -433 335 -78 35 -156 48 -244 39z m187 -62 c121 -43 195 -98 449
-335 193 -180 290 -247 542 -376 101 -52 185 -98 186 -103 2 -5 -7 -25 -20
-44 -20 -30 -79 -71 -231 -161 -46 -27 -96 -100 -96 -139 0 -26 -2 -27 -28
-18 -46 16 -97 74 -143 162 -70 136 -116 202 -188 269 -97 92 -191 140 -191
98 0 -6 26 -27 57 -47 118 -75 193 -163 268 -313 87 -174 147 -221 290 -226
95 -3 122 -13 131 -51 6 -21 2 -31 -20 -48 -31 -25 -102 -49 -191 -64 -101
-18 -155 -41 -196 -82 l-39 -39 -17 26 c-9 14 -27 73 -40 131 -27 123 -55 177
-129 248 -67 65 -102 85 -114 65 -6 -10 12 -33 69 -87 89 -82 110 -121 136
-253 10 -47 23 -97 31 -111 20 -39 79 -87 123 -99 54 -14 68 -33 50 -67 -15
-27 -97 -86 -137 -98 -21 -6 -22 -4 -15 22 4 15 8 51 8 79 0 65 -27 102 -134
183 -79 61 -142 125 -166 171 -7 14 -31 79 -53 146 -22 66 -55 145 -72 175
-40 66 -88 129 -101 129 -26 0 -15 -35 35 -108 41 -60 64 -109 91 -193 62
-193 101 -249 249 -362 l80 -61 -53 -12 c-65 -14 -109 -54 -158 -144 -37 -67
-70 -110 -85 -110 -32 0 -93 222 -113 415 -3 33 -13 81 -21 107 -18 56 -97
168 -119 168 -24 0 -17 -29 19 -79 54 -75 65 -104 81 -218 7 -59 17 -129 21
-154 6 -46 6 -47 -25 -54 -25 -5 -45 0 -92 25 -35 18 -82 33 -112 36 -97 10
-97 9 -97 58 0 116 -78 444 -175 741 -82 249 -102 359 -86 457 44 266 301 429
541 345z"/>
<path d="M3387 3759 c-15 -11 -27 -28 -27 -38 0 -49 120 -181 164 -181 76 0
50 138 -37 204 -48 36 -70 39 -100 15z"/>
<path d="M3185 3630 c-26 -28 -15 -89 27 -146 48 -68 81 -90 115 -78 23 8 29
16 31 48 10 117 -113 242 -173 176z"/>
<path d="M1684 3910 l-19 -65 -58 -15 c-31 -8 -57 -17 -57 -21 0 -4 26 -13 57
-21 l57 -14 20 -64 19 -65 21 65 21 64 58 14 c32 8 55 17 52 21 -3 3 -30 13
-58 21 -52 16 -52 16 -73 80 l-21 65 -19 -65z"/>
<path d="M4386 3910 c-3 -8 -12 -35 -19 -60 -12 -44 -14 -45 -77 -64 -36 -11
-60 -21 -55 -22 6 -2 35 -10 66 -19 55 -15 55 -16 68 -68 8 -28 16 -56 19 -61
2 -4 14 20 26 55 l21 63 57 14 c32 8 56 17 53 21 -2 4 -29 13 -59 20 l-56 12
-19 62 c-11 39 -21 56 -25 47z"/>
<path d="M1385 3500 c-101 -15 -216 -89 -311 -200 -57 -67 -116 -154 -223
-330 -137 -224 -200 -297 -434 -507 -70 -63 -135 -126 -143 -139 -15 -22 -14
-26 6 -59 17 -28 46 -47 146 -95 167 -82 211 -141 149 -200 -67 -63 -49 -141
40 -172 34 -12 83 -17 153 -18 151 0 182 -21 182 -122 0 -65 15 -89 76 -117
108 -51 204 -49 204 4 0 42 29 85 66 101 29 12 39 12 67 0 19 -7 44 -26 56
-42 34 -45 92 -84 123 -84 40 0 59 36 71 136 11 83 11 84 40 84 36 0 61 13
118 64 26 24 69 49 102 60 31 10 65 28 76 40 18 20 19 24 5 75 -28 107 -37
312 -28 601 15 476 10 546 -52 671 -82 166 -301 277 -489 249z m176 -54 c168
-51 278 -168 315 -334 15 -66 16 -106 8 -321 -12 -319 -8 -567 11 -711 9 -63
16 -123 18 -134 1 -14 -13 -25 -66 -46 -37 -15 -87 -46 -112 -69 -43 -40 -83
-58 -108 -48 -8 3 -18 47 -27 118 -21 166 -19 233 9 306 23 63 23 97 -1 88
-20 -8 -59 -119 -65 -183 -3 -31 2 -108 11 -170 26 -186 18 -382 -16 -382 -5
0 -44 33 -87 74 -94 90 -129 109 -198 108 -29 0 -53 2 -53 5 0 2 27 39 59 81
108 141 127 197 140 399 7 108 15 154 35 213 15 41 29 83 33 93 4 13 0 17 -16
17 -45 0 -87 -147 -100 -346 -11 -171 -27 -218 -120 -340 -36 -49 -72 -102
-79 -117 -18 -42 -15 -108 8 -152 11 -22 20 -41 20 -42 0 -9 -62 -1 -102 12
-53 18 -90 50 -86 73 2 8 23 30 48 47 25 17 55 49 67 71 21 35 23 53 23 184 0
139 1 148 29 205 15 33 42 77 60 99 35 44 38 54 15 63 -30 11 -110 -110 -139
-210 -13 -46 -15 -79 -10 -165 5 -71 3 -117 -4 -136 l-12 -29 -22 21 c-42 40
-74 45 -239 43 -180 -2 -228 9 -228 53 0 40 36 68 105 81 99 18 171 86 203
193 10 37 29 108 41 157 28 119 76 217 146 299 51 61 65 96 36 96 -5 0 -34
-28 -65 -62 -81 -91 -130 -196 -172 -367 -39 -158 -44 -173 -82 -213 -28 -31
-52 -36 -52 -13 0 8 -18 33 -40 55 -30 30 -56 44 -110 60 -38 11 -102 29 -141
40 -49 15 -82 32 -107 56 l-37 35 80 72 c154 138 317 303 370 372 29 39 97
142 151 230 119 195 160 253 233 328 70 73 127 114 194 138 62 22 164 24 228
5z"/>
<path d="M1343 3218 c-60 -66 -84 -186 -44 -222 37 -34 88 8 130 107 27 63 28
113 2 127 -32 16 -66 12 -88 -12z"/>
<path d="M1560 3140 c-47 -50 -63 -175 -29 -217 6 -7 24 -13 40 -13 36 0 72
51 93 134 13 50 14 62 1 92 -19 46 -64 48 -105 4z"/>
<path d="M2125 2543 l-18 -63 -59 -16 c-32 -9 -56 -19 -53 -23 3 -3 29 -12 58
-21 51 -15 51 -16 71 -79 l21 -63 20 63 c20 63 20 63 72 79 29 9 54 18 57 21
4 3 -21 13 -53 22 l-59 17 -19 62 -20 63 -18 -62z"/>
<path d="M2610 2454 c-198 -52 -324 -190 -364 -400 -10 -54 -16 -173 -20 -374
-5 -322 -24 -529 -61 -675 -17 -66 -20 -94 -12 -103 6 -8 41 -29 78 -48 37
-18 88 -54 112 -78 30 -31 59 -49 89 -57 l46 -13 4 -82 c5 -96 24 -134 66
-134 32 0 61 18 117 71 45 42 86 62 112 52 32 -11 73 -56 73 -79 0 -76 45 -97
150 -70 107 28 151 68 141 129 -1 10 3 33 9 52 18 55 48 65 199 65 71 0 141 4
155 10 71 27 86 92 36 155 -16 21 -30 44 -30 51 0 45 72 111 145 134 128 40
223 108 208 148 -4 9 -73 86 -154 169 -229 236 -270 292 -413 561 -105 198
-162 287 -239 368 -131 141 -283 191 -447 148z m175 -35 c86 -16 151 -53 225
-128 82 -82 132 -159 260 -397 125 -231 202 -335 400 -538 l155 -158 -32 -27
c-37 -31 -105 -54 -208 -72 -38 -7 -88 -20 -110 -29 -39 -17 -105 -80 -105
-101 0 -18 -40 11 -61 44 -25 41 -36 83 -59 221 -27 161 -85 291 -170 384 -31
34 -60 42 -60 17 0 -8 20 -40 45 -71 74 -90 122 -201 140 -324 16 -104 38
-196 56 -231 26 -52 83 -95 158 -120 65 -22 111 -56 111 -82 0 -8 -9 -22 -21
-33 -22 -20 -44 -21 -299 -13 -94 4 -109 2 -143 -18 l-38 -23 -10 28 c-8 19
-7 54 2 120 6 51 9 118 6 148 -9 90 -90 244 -128 244 -24 0 -24 -20 -1 -51 34
-45 62 -100 77 -154 14 -48 15 -70 4 -170 -16 -149 -8 -178 69 -252 63 -59 63
-71 4 -106 -30 -17 -142 -36 -142 -24 0 3 11 27 25 53 14 26 25 61 25 78 0 40
-36 114 -94 195 -78 110 -88 149 -96 361 -6 158 -10 195 -31 255 -16 47 -30
71 -41 73 -24 5 -23 -17 3 -98 16 -51 22 -105 28 -250 9 -212 18 -243 101
-366 80 -118 79 -113 17 -107 -66 7 -114 -15 -197 -92 -63 -58 -96 -79 -110
-70 -29 18 -18 237 21 403 10 45 19 106 18 135 0 71 -39 191 -63 195 -22 5
-20 -20 9 -131 18 -67 18 -70 -3 -170 -12 -56 -24 -126 -28 -154 -6 -48 -9
-53 -31 -53 -34 0 -74 23 -101 59 -13 18 -53 45 -98 67 -54 26 -74 40 -70 51
12 31 45 213 56 308 6 55 15 251 20 435 9 357 13 395 66 505 54 115 164 200
296 229 81 18 83 18 153 5z"/>
<path d="M2740 2181 c-15 -29 -12 -64 11 -126 37 -98 94 -142 130 -99 31 38 5
170 -43 221 -28 29 -83 31 -98 4z"/>
<path d="M2525 2125 c-31 -31 -32 -74 -4 -152 27 -73 45 -93 81 -93 24 0 32 6
45 37 28 67 2 182 -49 217 -31 22 -45 20 -73 -9z"/>
<path d="M4526 2359 c-45 -53 -28 -117 60 -224 52 -64 64 -65 145 -10 111 76
143 126 119 186 -22 52 -88 73 -140 45 -22 -13 -27 -12 -53 10 -43 36 -98 33
-131 -7z"/>
<path d="M3716 1950 c-3 -8 -12 -35 -19 -60 -12 -44 -15 -46 -77 -67 l-64 -21
64 -19 64 -19 15 -57 c8 -31 18 -57 21 -57 4 0 14 26 23 58 l16 58 63 18 63
17 -64 22 -65 22 -17 60 c-10 36 -19 54 -23 45z"/>
<path d="M863 1453 c-27 -5 -73 -58 -73 -84 0 -15 -7 -19 -31 -19 -61 0 -98
-35 -99 -91 0 -77 76 -119 216 -119 l72 0 11 33 c24 75 34 168 22 208 -16 53
-64 82 -118 72z"/>
<path d="M1940 573 l-15 -58 -65 -21 -65 -21 65 -19 65 -19 15 -58 c8 -31 17
-57 21 -57 4 0 13 26 21 57 l14 58 64 19 65 19 -65 21 -64 21 -15 58 c-8 31
-18 57 -21 57 -3 0 -12 -26 -20 -57z"/>
<path d="M3411 450 c-175 -63 -235 -151 -153 -227 26 -24 70 -28 112 -10 10 5
21 -3 32 -23 32 -57 109 -63 149 -12 17 22 20 37 17 78 -5 54 -42 140 -80 186
l-23 27 -54 -19z"/>
</g>
</svg>
